#N canvas 615 412 782 458 10;
#X msg 60 30 5 8;
#X obj 60 72 unpack f f;
#X floatatom 60 104 5 0 0 0 - - -, f 5;
#X floatatom 294 105 5 0 0 0 - - -, f 5;
#X obj 60 123 t b b f b b f b;
#X obj 181 379 table euclid 256;
#X obj 60 175 f;
#X obj 60 197 until;
#X obj 276 173 f;
#X obj 294 124 t f f;
#X msg 326 152 set \$1;
#X obj 276 201 s modulo;
#X msg 149 221 0;
#X msg 146 157 \; euclid const 0;
#X msg 110 178 9;
#X obj 110 220 /;
#X obj 60 248 f;
#X obj 60 270 +;
#X obj 119 270 f;
#X obj 60 292 - 0.5;
#X obj 60 314 int;
#X obj 60 336 t b f;
#X msg 60 358 1;
#X obj 60 380 tabwrite euclid;
#X msg 93 30 5 16;
#X msg 139 30 6 16;
#X msg 184 30 7 16;
#X msg 231 30 9 16;
#X msg 281 30 11 16;
#X msg 334 30 13 16;
#X msg 393 30 2 3;
#X msg 434 30 5 12;
#X msg 481 30 2 5;
#X msg 522 30 4 7;
#X msg 563 30 5 7;
#X msg 604 30 5 9;
#X connect 0 0 1 0;
#X connect 1 0 2 0;
#X connect 1 1 3 0;
#X connect 2 0 4 0;
#X connect 3 0 9 0;
#X connect 4 0 6 0;
#X connect 4 1 14 0;
#X connect 4 2 15 1;
#X connect 4 3 13 0;
#X connect 4 4 12 0;
#X connect 4 5 6 1;
#X connect 4 6 8 0;
#X connect 6 0 7 0;
#X connect 7 0 16 0;
#X connect 8 0 11 0;
#X connect 9 0 8 1;
#X connect 9 1 10 0;
#X connect 10 0 14 0;
#X connect 12 0 17 1;
#X connect 12 0 18 1;
#X connect 14 0 15 0;
#X connect 15 0 16 1;
#X connect 16 0 17 0;
#X connect 17 0 18 0;
#X connect 17 0 19 0;
#X connect 18 0 17 1;
#X connect 19 0 20 0;
#X connect 20 0 21 0;
#X connect 21 0 22 0;
#X connect 21 1 23 1;
#X connect 22 0 23 0;
#X connect 24 0 1 0;
#X connect 25 0 1 0;
#X connect 26 0 1 0;
#X connect 27 0 1 0;
#X connect 28 0 1 0;
#X connect 29 0 1 0;
#X connect 30 0 1 0;
#X connect 31 0 1 0;
#X connect 32 0 1 0;
#X connect 33 0 1 0;
#X connect 34 0 1 0;
#X connect 35 0 1 0;
