#N canvas 571 22 866 729 10;
#X obj 254 48 unpackOSC;
#X obj 254 7 udpreceive 12001;
#X obj 254 85 routeOSC /dtr/Continuous;
#X obj 254 136 routeOSC /1 /2 /3 /4 /5 /6;
#X obj 91 86 routeOSC /dtr/Digital;
#X obj 266 111 print pot;
#X obj 103 114 print switch;
#X obj 19 137 routeOSC /1 /2 /3 /4 /5 /6 /7 /8;
#X obj 450 84 routeOSC /dtr/JackIsPatched;
#X obj 477 113 print patch;
#X obj 450 137 routeOSC /1 /2 /3 /4;
#X obj 451 164 routeOSC /5 /6 /7 /8;
#X obj 451 192 routeOSC /9 /10 /11 /12;
#X obj 452 222 routeOSC /13 /14 /15 /16;
#X obj 460 262 tgl 15 0 empty empty empty 17 7 0 10 -262144 -1 -1 0
1;
#X obj 534 263 tgl 15 0 empty empty empty 17 7 0 10 -262144 -1 -1 0
1;
#X obj 609 261 tgl 15 0 empty empty empty 17 7 0 10 -262144 -1 -1 0
1;
#X obj 676 263 tgl 15 0 empty empty empty 17 7 0 10 -262144 -1 -1 0
1;
#X obj 458 318 tgl 15 0 empty empty empty 17 7 0 10 -262144 -1 -1 0
1;
#X obj 532 319 tgl 15 0 empty empty empty 17 7 0 10 -262144 -1 -1 0
1;
#X obj 607 317 tgl 15 0 empty empty empty 17 7 0 10 -262144 -1 -1 0
1;
#X obj 674 319 tgl 15 0 empty empty empty 17 7 0 10 -262144 -1 -1 0
1;
#X obj 458 371 tgl 15 0 empty empty empty 17 7 0 10 -262144 -1 -1 0
1;
#X obj 532 372 tgl 15 0 empty empty empty 17 7 0 10 -262144 -1 -1 0
1;
#X obj 607 370 tgl 15 0 empty empty empty 17 7 0 10 -262144 -1 -1 0
1;
#X obj 674 372 tgl 15 0 empty empty empty 17 7 0 10 -262144 -1 -1 0
1;
#X obj 453 431 tgl 15 0 empty empty empty 17 7 0 10 -262144 -1 -1 0
1;
#X obj 527 432 tgl 15 0 empty empty empty 17 7 0 10 -262144 -1 -1 0
1;
#X obj 602 430 tgl 15 0 empty empty empty 17 7 0 10 -262144 -1 -1 0
1;
#X obj 669 432 tgl 15 0 empty empty empty 17 7 0 10 -262144 -1 -1 0
1;
#X obj 18 165 tgl 15 0 empty empty empty 17 7 0 10 -262144 -1 -1 0
1;
#X obj 45 168 tgl 15 0 empty empty empty 17 7 0 10 -262144 -1 -1 0
1;
#X obj 73 168 tgl 15 0 empty empty empty 17 7 0 10 -262144 -1 -1 0
1;
#X obj 100 167 tgl 15 0 empty empty empty 17 7 0 10 -262144 -1 -1 0
1;
#X obj 129 167 tgl 15 0 empty empty empty 17 7 0 10 -262144 -1 -1 0
1;
#X obj 158 169 tgl 15 0 empty empty empty 17 7 0 10 -262144 -1 -1 0
1;
#X obj 186 168 tgl 15 0 empty empty empty 17 7 0 10 -262144 -1 -1 0
1;
#X obj 214 168 tgl 15 0 empty empty empty 17 7 0 10 -262144 -1 -1 0
1;
#X floatatom 254 190 5 0 0 0 - - -, f 5;
#X floatatom 283 168 5 0 0 0 - - -, f 5;
#X floatatom 311 190 5 0 0 0 - - -, f 5;
#X floatatom 341 166 5 0 0 0 - - -, f 5;
#X floatatom 372 189 5 0 0 0 - - -, f 5;
#X floatatom 401 167 5 0 0 0 - - -, f 5;
#X obj 25 508 packOSC;
#X obj 25 563 udpsend 12000;
#X floatatom 45 368 5 0 1 0 - - -, f 5;
#X msg 72 536 connect localhost 12000;
#X obj 26 368 tgl 15 0 empty empty empty 17 7 0 10 -262144 -1 -1 0
1;
#X msg 252 300 send /dtr/OutputJack/1 \$1;
#X obj 251 250 metro 200;
#X obj 251 277 random 255;
#X obj 250 219 tgl 15 0 empty empty empty 17 7 0 10 -262144 -1 -1 0
1;
#X msg 26 423 sendtyped /dtr/LED/1 f \$1;
#X floatatom 108 369 5 0 1 0 - - -, f 5;
#X obj 89 369 tgl 15 0 empty empty empty 17 7 0 10 -262144 -1 -1 0
1;
#X msg 138 476 sendtyped /dtr/LED/2 f \$1;
#X floatatom 171 368 5 0 1 0 - - -, f 5;
#X obj 152 368 tgl 15 0 empty empty empty 17 7 0 10 -262144 -1 -1 0
1;
#X msg 110 397 sendtyped /dtr/LED/3 f \$1;
#X floatatom 233 366 5 0 1 0 - - -, f 5;
#X obj 214 366 tgl 15 0 empty empty empty 17 7 0 10 -262144 -1 -1 0
1;
#X msg 224 449 sendtyped /dtr/LED/4 f \$1;
#X obj 31 288 routeOSC /dtr/InputJack;
#X obj 31 310 print input;
#X text 457 282 rand out;
#X obj 92 510 loadbang;
#N canvas 0 420 570 455 oscillator 0;
#X obj 34 43 inlet;
#X obj 111 42 inlet;
#X text 32 22 frequency;
#X text 107 21 frequency;
#X obj 195 43 inlet;
#X obj 263 44 inlet;
#X obj 33 109 phasor~ 330;
#X obj 119 108 phasor~ 660;
#X obj 320 41 inlet;
#X obj 388 42 inlet;
#X obj 42 307 outlet~;
#X obj 161 305 outlet~;
#X obj 127 244 vcf~ 1;
#X obj 62 243 vcf~ 1;
#X obj 88 188 sig~;
#X obj 221 153 sig~;
#X text 200 21 cutoff;
#X text 261 21 cutoff;
#X connect 0 0 6 0;
#X connect 1 0 7 0;
#X connect 4 0 14 0;
#X connect 5 0 15 0;
#X connect 6 0 13 0;
#X connect 7 0 12 0;
#X connect 8 0 13 2;
#X connect 9 0 12 2;
#X connect 12 1 11 0;
#X connect 13 1 10 0;
#X connect 14 0 13 1;
#X connect 15 0 12 1;
#X restore 374 629 pd oscillator;
#X obj 375 694 dac~ 1 2;
#X obj 374 659 *~ 1;
#X obj 462 659 *~ 1;
#X floatatom 470 528 10 0 0 0 - - -, f 10;
#X obj 468 499 + 20;
#X obj 466 473 * 10000;
#X floatatom 551 527 10 0 0 0 - - -, f 10;
#X obj 549 498 + 20;
#X obj 547 472 * 10000;
#X floatatom 630 525 10 0 0 0 - - -, f 10;
#X obj 628 496 + 20;
#X obj 626 470 * 10000;
#X floatatom 716 527 10 0 0 0 - - -, f 10;
#X obj 714 498 + 20;
#X obj 712 472 * 10000;
#X floatatom 551 602 5 0 1 0 - - -, f 5;
#X connect 0 0 2 0;
#X connect 0 0 4 0;
#X connect 0 0 8 0;
#X connect 0 0 63 0;
#X connect 1 0 0 0;
#X connect 2 0 3 0;
#X connect 2 0 5 0;
#X connect 3 0 38 0;
#X connect 3 1 39 0;
#X connect 3 2 40 0;
#X connect 3 3 41 0;
#X connect 3 4 42 0;
#X connect 3 5 43 0;
#X connect 4 0 6 0;
#X connect 4 0 7 0;
#X connect 7 0 30 0;
#X connect 7 1 31 0;
#X connect 7 2 32 0;
#X connect 7 3 33 0;
#X connect 7 4 34 0;
#X connect 7 5 35 0;
#X connect 7 6 36 0;
#X connect 7 7 37 0;
#X connect 8 0 9 0;
#X connect 8 0 10 0;
#X connect 10 0 14 0;
#X connect 10 1 15 0;
#X connect 10 2 16 0;
#X connect 10 3 17 0;
#X connect 10 4 11 0;
#X connect 11 0 18 0;
#X connect 11 1 19 0;
#X connect 11 2 20 0;
#X connect 11 3 21 0;
#X connect 11 4 12 0;
#X connect 12 0 22 0;
#X connect 12 1 23 0;
#X connect 12 2 24 0;
#X connect 12 3 25 0;
#X connect 12 4 13 0;
#X connect 13 0 26 0;
#X connect 13 1 27 0;
#X connect 13 2 28 0;
#X connect 13 3 29 0;
#X connect 30 0 48 0;
#X connect 31 0 55 0;
#X connect 32 0 58 0;
#X connect 33 0 61 0;
#X connect 34 0 48 0;
#X connect 35 0 55 0;
#X connect 36 0 58 0;
#X connect 37 0 61 0;
#X connect 38 0 46 0;
#X connect 38 0 76 0;
#X connect 39 0 54 0;
#X connect 39 0 73 0;
#X connect 40 0 57 0;
#X connect 40 0 82 0;
#X connect 41 0 60 0;
#X connect 41 0 79 0;
#X connect 42 0 70 1;
#X connect 43 0 69 1;
#X connect 44 0 45 0;
#X connect 46 0 53 0;
#X connect 47 0 45 0;
#X connect 48 0 46 0;
#X connect 49 0 44 0;
#X connect 50 0 51 0;
#X connect 51 0 49 0;
#X connect 52 0 50 0;
#X connect 53 0 44 0;
#X connect 54 0 56 0;
#X connect 55 0 54 0;
#X connect 56 0 44 0;
#X connect 57 0 59 0;
#X connect 58 0 57 0;
#X connect 59 0 44 0;
#X connect 60 0 62 0;
#X connect 61 0 60 0;
#X connect 62 0 44 0;
#X connect 63 0 64 0;
#X connect 66 0 47 0;
#X connect 67 0 69 0;
#X connect 67 1 70 0;
#X connect 69 0 68 0;
#X connect 70 0 68 1;
#X connect 71 0 67 0;
#X connect 72 0 71 0;
#X connect 73 0 72 0;
#X connect 74 0 67 1;
#X connect 75 0 74 0;
#X connect 76 0 75 0;
#X connect 77 0 67 2;
#X connect 78 0 77 0;
#X connect 79 0 78 0;
#X connect 80 0 67 3;
#X connect 81 0 80 0;
#X connect 82 0 81 0;
#X connect 83 0 67 4;
