#N canvas 3 295 588 579 10;
#X obj 67 537 delwrite~ ka 200;
#X obj 67 333 delread~ ka;
#X obj 67 395 lop~ 1000;
#X obj 67 417 *~ 0.7;
#X obj 67 444 *~ 0.5;
#X obj 180 461 noise~;
#X obj 180 493 *~;
#X obj 126 439 z~ 3;
#X obj 126 461 *~ 0.5;
#X obj 233 460 line~;
#X obj 278 323 hsl 128 15 0 1 0 0 empty empty empty -2 -8 0 10 -262144
-1 -1 12600 1;
#X obj 77 370 dac~;
#X obj 68 222 mtof;
#X obj 68 244 t b f;
#X msg 68 268 1000;
#X obj 68 294 /;
#X obj 91 94 f;
#X obj 132 91 + 1;
#X obj 133 118 % 16;
#X obj 208 92 table seq 16;
#X obj 91 142 tabread seq;
#X obj 91 166 sel 0;
#X obj 90 191 t b f;
#X obj 91 39 tgl 15 0 empty empty empty 17 7 0 10 -262144 -1 -1 1 1
;
#X obj 91 64 metro 125;
#X msg 207 50 \; seq 0 36 45 0 0 35 50 43 0 0 33 33 0 45 47;
#X obj 280 199 hsl 128 15 0 60 0 0 empty empty empty -2 -8 0 10 -262144
-1 -1 7200 1;
#X obj 162 279 pack f f;
#X msg 162 253 0;
#X msg 131 280 1;
#X obj 160 221 t b b;
#X obj 281 251 hsl 128 15 0 8000 0 0 empty empty empty -2 -8 0 10 -262144
-1 -1 2900 1;
#X floatatom 278 284 5 0 0 0 - - -, f 5;
#X floatatom 275 343 5 0 0 0 - - -, f 5;
#X floatatom 277 219 5 0 0 0 - - -, f 5;
#X obj 160 191 bng 15 250 50 0 empty empty empty 17 7 0 10 -262144
-1 -1;
#X obj 208 145 tabread euclid;
#X obj 208 167 sel 1;
#X obj 165 28 r modulo;
#X connect 1 0 2 0;
#X connect 1 0 11 0;
#X connect 1 0 11 1;
#X connect 2 0 3 0;
#X connect 3 0 4 0;
#X connect 3 0 7 0;
#X connect 4 0 0 0;
#X connect 5 0 6 0;
#X connect 6 0 0 0;
#X connect 7 0 8 0;
#X connect 8 0 0 0;
#X connect 9 0 6 1;
#X connect 10 0 33 0;
#X connect 12 0 13 0;
#X connect 13 0 14 0;
#X connect 13 1 15 1;
#X connect 14 0 15 0;
#X connect 15 0 1 0;
#X connect 16 0 17 0;
#X connect 16 0 20 0;
#X connect 16 0 36 0;
#X connect 17 0 18 0;
#X connect 18 0 16 1;
#X connect 20 0 21 0;
#X connect 21 1 22 0;
#X connect 22 1 12 0;
#X connect 23 0 24 0;
#X connect 24 0 16 0;
#X connect 26 0 34 0;
#X connect 27 0 9 0;
#X connect 28 0 27 0;
#X connect 29 0 9 0;
#X connect 30 0 28 0;
#X connect 30 1 29 0;
#X connect 31 0 32 0;
#X connect 32 0 2 1;
#X connect 33 0 3 1;
#X connect 34 0 27 1;
#X connect 35 0 30 0;
#X connect 36 0 37 0;
#X connect 37 0 30 0;
#X connect 38 0 18 1;
