#N canvas 591 334 751 513 10;
#N canvas 0 22 450 278 (subpatch) 0;
#X array sequencer 16 float 3;
#A 0 0 0 0 0 0 0 0 0 0 0 0 0 0 0 0 0;
#X coords 0 5000 16 20 200 140 2 0 0;
#X restore 50 69 graph;
#X obj 491 91 phasor~ 1;
#X obj 324 185 tabwrite~ sequencer;
#X obj 491 141 *~ 16;
#X obj 491 173 tabread~ sequencer;
#X obj 491 207 outlet~;
#X obj 491 63 inlet~;
#X obj 324 47 inlet~;
#X obj 614 72 inlet;
#X text 491 36 clock signal;
#X text 616 45 num steps;
#X text 491 233 signal output;
#X obj 260 161 loadbang;
#X msg 262 129 bang;
#X text 316 24 set values with signal;
#X obj 214 252 inlet;
#X obj 213 340 tabwrite sequencer;
#X obj 215 298 unpack f f;
#X text 264 252 set values with list (x \, y);
#X connect 1 0 3 0;
#X connect 3 0 4 0;
#X connect 4 0 5 0;
#X connect 6 0 1 0;
#X connect 7 0 2 0;
#X connect 8 0 3 1;
#X connect 12 0 2 0;
#X connect 13 0 2 0;
#X connect 15 0 17 0;
#X connect 17 0 16 1;
#X connect 17 1 16 0;
#X coords 0 -1 1 1 200 160 1 50 50;
