#N canvas 739 22 700 500 10;
#X obj 171 390 delwrite~ two_outputs 5000;
#X obj 37 248 *~;
#X floatatom 52 224 5 0 0 0 - - -, f 5;
#X floatatom 42 15 5 0 0 0 - - -, f 5;
#X floatatom 136 98 5 0 0 0 - - -, f 5;
#X obj 113 141 s~ wet_effects_in;
#X obj 473 108 r~ wet_effects_in;
#X obj 475 184 s~ wet_effects_out;
#X obj 171 270 r~ wet_effects_out;
#X obj 114 120 *~ 0;
#X obj 36 64 vd~ two_outputs;
#X obj 38 39 sig~;
#X obj 38 287 dac~;
#X text 488 147 do pre-feedback here;
#X text 77 37 delay time input;
#X text 53 199 delay'd gain;
#X text 339 338 signal input;
#X text 172 101 feedback amount;
#X obj 295 339 adc~ 1;
#X obj 170 335 *~ 1;
#X text 223 297 digital loop mix;
#X floatatom 187 296 5 0 0 0 - - -, f 5;
#X obj 343 165 *~ 0;
#X floatatom 365 126 5 0 0 0 - - -, f 5;
#X text 319 104 pre-feedback send;
#X connect 1 0 12 0;
#X connect 2 0 1 1;
#X connect 3 0 11 0;
#X connect 4 0 9 1;
#X connect 6 0 7 0;
#X connect 6 0 22 0;
#X connect 8 0 19 0;
#X connect 9 0 5 0;
#X connect 10 0 9 0;
#X connect 10 0 1 0;
#X connect 11 0 10 0;
#X connect 18 0 0 0;
#X connect 19 0 0 0;
#X connect 21 0 19 1;
#X connect 22 0 12 1;
#X connect 23 0 22 1;
